<svg width="149" height="48" viewBox="0 0 149 48" fill="none" xmlns="http://www.w3.org/2000/svg">
<rect x="54.7971" y="14.7695" width="3.63696" height="22.1538" fill="#22C55D"/>
<rect x="78.3357" y="7.38281" width="3.63696" height="18.4615" fill="#22C55D"/>
<rect x="84.7966" y="3.69141" width="3.63696" height="18.4615" fill="#22C55D"/>
<rect x="42.7971" y="17.5391" width="3.63696" height="26.7692" fill="#22C55D"/>
<rect x="48.7966" y="16.6172" width="3.63696" height="26.7692" fill="#22C55D"/>
<rect x="0.796631" y="41.5391" width="3.63696" height="6.46154" fill="#22C55D"/>
<rect x="108.797" y="33.2305" width="3.63696" height="6.46154" fill="#22C55D"/>
<rect x="6.79712" y="39.6914" width="3.63696" height="6.46154" fill="#22C55D"/>
<rect x="114.797" y="31.3828" width="3.63696" height="6.46154" fill="#22C55D"/>
<rect x="12.7966" y="38.7695" width="3.63696" height="6.46154" fill="#22C55D"/>
<rect x="120.797" y="30.4609" width="3.63696" height="6.46154" fill="#22C55D"/>
<rect x="18.7971" y="37.8477" width="3.63696" height="6.46154" fill="#22C55D"/>
<rect x="126.797" y="29.5391" width="3.63696" height="6.46154" fill="#22C55D"/>
<rect x="30.7971" y="37.8477" width="3.63696" height="6.46154" fill="#22C55D"/>
<rect x="90.7971" y="0.921875" width="3.63696" height="6.46154" fill="#22C55D"/>
<rect x="96.7966" y="3.69141" width="3.63696" height="6.46154" fill="#22C55D"/>
<rect x="36.7966" y="38.7695" width="3.63696" height="6.46154" fill="#22C55D"/>
<rect x="24.7966" y="30.4609" width="3.63696" height="12.9231" fill="#22C55D"/>
<rect x="132.797" y="23.0781" width="3.63696" height="12" fill="#22C55D"/>
<rect x="138.797" y="16.6172" width="3.63696" height="12.9231" fill="#22C55D"/>
<rect x="102.797" y="3.69141" width="3.63696" height="37.8462" fill="#EF4444"/>
<rect x="60.7969" width="3.63696" height="9.23077" fill="#EF4444"/>
<rect x="67.2576" y="4.61719" width="3.63696" height="10.1538" fill="#EF4444"/>
<rect x="72.7969" y="12" width="3.63696" height="9.23077" fill="#EF4444"/>
<rect x="144.797" y="18.4609" width="3.63696" height="14.7692" fill="#EF4444"/>
</svg>
