<svg width="17" height="18" viewBox="0 0 17 18" fill="none" xmlns="http://www.w3.org/2000/svg">
<path d="M4.57719 15.4937C6.15261 16.4055 8.00585 16.7132 9.7914 16.3595C11.5769 16.0058 13.1729 15.0148 14.2818 13.5713C15.3906 12.1278 15.9367 10.3303 15.8181 8.5139C15.6995 6.69752 14.9245 4.98626 13.6373 3.69915C12.3502 2.41204 10.639 1.63695 8.8226 1.51838C7.00622 1.39981 5.20871 1.94586 3.7652 3.05471C2.32169 4.16357 1.3307 5.75955 0.977002 7.5451C0.623303 9.33064 0.931034 11.1839 1.84282 12.7593L0.865475 15.6773C0.82875 15.7874 0.82342 15.9056 0.850083 16.0186C0.876746 16.1315 0.934348 16.2349 1.01643 16.3169C1.09852 16.399 1.20184 16.4566 1.31482 16.4833C1.4278 16.51 1.54598 16.5046 1.6561 16.4679L4.57719 15.4937Z" stroke="white" stroke-opacity="0.4" stroke-width="1.25" stroke-linecap="round" stroke-linejoin="round"/>
</svg>
