<svg width="16" height="17" viewBox="0 0 16 17" fill="none" xmlns="http://www.w3.org/2000/svg">
<mask id="mask0_91_2616" style="mask-type:alpha" maskUnits="userSpaceOnUse" x="0" y="0" width="16" height="17">
<g clip-path="url(#clip0_91_2616)">
<path d="M8.8346 9.6922H10.1962V12.1518C10.1962 12.8771 9.94657 13.4036 9.57678 13.7507C9.20241 14.1022 8.66792 14.304 8.04401 14.304H4.34832C3.7244 14.304 3.18993 14.1022 2.81552 13.7507C2.4458 13.4036 2.19617 12.8771 2.19617 12.1518V7.98552C2.19617 7.26025 2.4458 6.73376 2.81552 6.38664C3.18993 6.03514 3.7244 5.83337 4.34832 5.83337H6.33734V7.19494C6.33734 8.57893 7.45878 9.6922 8.8346 9.6922Z" fill="black" stroke="black" stroke-width="0.941177"/>
<path d="M10.4156 2.69604H11.6517C12.2756 2.69604 12.8101 2.89781 13.1845 3.24933C13.5542 3.59644 13.8039 4.12293 13.8039 4.8482V6.08428V7.78468V9.02075C13.8039 9.72693 13.5661 10.2422 13.2127 10.5864C12.9574 10.8351 12.6237 11.0119 12.2352 11.0994V10.2945V8.59409V7.35801C12.2352 6.40171 11.8982 5.61684 11.3189 5.07297C10.7443 4.53349 9.96736 4.26468 9.14189 4.26468H7.90582H7.22189H5.86926C5.96735 3.81934 6.17747 3.47581 6.45124 3.22713C6.82281 2.88963 7.34606 2.69604 7.95601 2.69604H9.73169H10.4156Z" fill="black" stroke="black" stroke-width="0.941177"/>
<path d="M8.76589 8.09213L8.75927 8.09208C8.28871 8.09208 7.93103 7.72316 7.93103 7.30777V6.07019C8.52914 6.67648 9.34503 7.49707 9.945 8.09826C9.5257 8.09796 9.09646 8.09679 8.76589 8.09213Z" fill="black" stroke="black" stroke-width="0.941177"/>
</g>
</mask>
<g mask="url(#mask0_91_2616)">
<rect y="0.5" width="16" height="16" fill="#A1A1AA"/>
</g>
<defs>
<clipPath id="clip0_91_2616">
<rect width="16" height="16" fill="white" transform="translate(0 0.5)"/>
</clipPath>
</defs>
</svg>
