<svg width="14" height="14" viewBox="0 0 14 14" fill="none" xmlns="http://www.w3.org/2000/svg">
<path d="M11.3989 4.12751C11.1877 3.90866 10.9348 3.73431 10.6551 3.61474C10.3755 3.49516 10.0747 3.43279 9.77051 3.4313H9.0206C8.87337 3.01287 8.59986 2.65045 8.23782 2.39407C7.87578 2.13769 7.44307 2 6.99941 2C6.55576 2 6.12304 2.13769 5.761 2.39407C5.39896 2.65045 5.12545 3.01287 4.97822 3.4313H4.14261C3.57435 3.4313 3.02937 3.65699 2.62756 4.05873C2.22574 4.46047 2 5.00534 2 5.57348C1.99973 5.86041 2.05712 6.14448 2.16877 6.40882C2.28041 6.67315 2.44404 6.91237 2.64992 7.11227C3.00141 7.43786 3.28325 7.8313 3.47843 8.26882C3.67361 8.70635 3.77807 9.17888 3.7855 9.65789V11.136C3.7855 11.3651 3.87655 11.5849 4.03862 11.7469C4.20068 11.909 4.42049 12 4.64969 12H9.34913C9.46262 12 9.57499 11.9777 9.67984 11.9342C9.78469 11.8908 9.87996 11.8272 9.9602 11.7469C10.0404 11.6667 10.1041 11.5715 10.1475 11.4666C10.191 11.3618 10.2133 11.2495 10.2133 11.136V9.8364C10.215 9.32415 10.3184 8.81734 10.5177 8.3454C10.7169 7.87346 11.0079 7.44581 11.3739 7.08728C11.7542 6.7066 11.9773 6.19677 11.9988 5.65916C12.0084 5.37648 11.9601 5.09483 11.8569 4.83146C11.7537 4.56809 11.5979 4.32855 11.3989 4.12751ZM9.49911 11.136C9.4996 11.1558 9.49606 11.1755 9.4887 11.1939C9.48133 11.2124 9.4703 11.2291 9.45628 11.2431C9.44225 11.2571 9.42552 11.2682 9.4071 11.2755C9.38868 11.2829 9.36896 11.2864 9.34913 11.2859H4.64969C4.62986 11.2864 4.61014 11.2829 4.59172 11.2755C4.5733 11.2682 4.55657 11.2571 4.54254 11.2431C4.52852 11.2291 4.51749 11.2124 4.51012 11.1939C4.50276 11.1755 4.49922 11.1558 4.49971 11.136V10.5719H9.49911V11.136Z" fill="#10B981"/>
</svg>
