<svg width="14" height="14" viewBox="0 0 14 14" fill="none" xmlns="http://www.w3.org/2000/svg">
<path d="M7.66628 3.03451C7.66628 3.09414 7.61702 3.1421 7.55869 3.1421H7.27999C7.19573 3.1421 7.10888 3.14859 7.02462 3.16285C7.06999 3.15377 7.10499 3.12007 7.11277 3.0747C7.11536 3.06173 7.11665 3.04747 7.11665 3.03322C7.11665 2.66377 6.81591 2.36303 6.44647 2.36303C6.07702 2.36303 5.77499 2.66377 5.77499 3.03322C5.77499 3.24451 5.87091 3.43896 6.04073 3.56859C6.05888 3.58285 6.08351 3.59062 6.10554 3.59062C6.13147 3.59062 6.1574 3.58025 6.17814 3.5621C6.04851 3.67877 5.93962 3.81229 5.85406 3.96266C5.83851 3.98988 5.81258 4.00933 5.78017 4.01451C5.77369 4.01581 5.76591 4.0171 5.75943 4.0171C5.7361 4.0171 5.71147 4.00933 5.69202 3.99507C5.39647 3.76173 5.22536 3.41303 5.22536 3.03451C5.22536 2.36173 5.7724 1.8147 6.44517 1.8147C7.11925 1.8147 7.66628 2.36173 7.66628 3.03451ZM10.3483 11.5447C10.3483 11.8986 10.0605 12.1851 9.70795 12.1851H8.34943C8.83295 11.9803 9.25295 11.6406 9.55758 11.1934C9.6198 11.1001 9.67684 11.0041 9.72869 10.9056C10.0722 10.9147 10.3483 11.1973 10.3483 11.5447ZM5.48202 11.7314H5.33554C3.86036 11.7314 2.65869 10.531 2.65869 9.05581V6.00303C2.65869 5.74507 2.86999 5.53377 3.12795 5.53377C3.38721 5.53377 3.59851 5.74377 3.59851 6.00303V9.05581C3.59851 9.7934 4.06777 10.4351 4.73017 10.684C4.78202 10.8149 4.84425 10.9406 4.91684 11.0625C5.06721 11.3127 5.26036 11.5408 5.48202 11.7314ZM11.1611 3.95877C11.117 3.95877 11.0548 3.94192 10.9861 3.87322L10.3963 3.2834C10.3172 3.20433 10.3068 3.13433 10.3107 3.08896C10.3198 3.01118 10.3846 2.92692 10.5441 2.92692H10.9913C11.1844 2.92692 11.3426 3.08507 11.3426 3.27822V3.72544C11.3426 3.88359 11.2583 3.9497 11.1805 3.95877C11.1741 3.95747 11.1676 3.95877 11.1611 3.95877ZM10.5609 3.1421L11.1248 3.70599V3.27692C11.1248 3.20433 11.0626 3.1421 10.99 3.1421H10.5609ZM10.5117 7.51581V8.04859C10.5117 8.40247 10.2239 8.69025 9.87128 8.69025C9.79091 8.69025 9.71184 8.6747 9.63666 8.64618C9.42406 8.56451 9.27499 8.37785 9.23739 8.15618H8.90554C8.55165 8.15618 8.26388 7.8684 8.26388 7.51581C8.26388 7.16192 8.55165 6.87544 8.90554 6.87544H9.87128C10.2239 6.87414 10.5117 7.16192 10.5117 7.51581Z" fill="#EF4444"/>
<path d="M11.2699 3.81504C11.2544 3.76967 11.2103 3.73726 11.1649 3.74115C11.1611 3.73856 11.152 3.73208 11.1377 3.71911L10.5479 3.1293C10.5336 3.11504 10.5272 3.10726 10.5259 3.10208C10.5272 3.05541 10.4973 3.01393 10.452 2.99708C10.3133 2.94911 10.1694 2.92578 10.0229 2.92578H7.27994C7.18401 2.92578 7.08679 2.93356 6.99216 2.94782C6.63568 3.00356 6.30513 3.15911 6.0355 3.40152C5.89031 3.53245 5.76587 3.68411 5.66994 3.85004C5.64272 3.89282 5.61679 3.94078 5.59087 3.99652C5.58698 4.003 5.58568 4.00949 5.58438 4.01208C5.56883 4.04319 5.55587 4.0743 5.5442 4.10671C4.99327 5.43282 4.74438 7.91004 4.74438 9.64967C4.74438 10.1086 4.86883 10.5597 5.10346 10.9499C5.28105 11.2467 5.52346 11.5099 5.80475 11.7108C6.23513 12.0206 6.74587 12.1852 7.27994 12.1852C8.12124 12.1852 8.9055 11.7691 9.37864 11.073C9.66383 10.6517 9.8155 10.1604 9.8155 9.64967C9.8155 9.41374 9.81161 9.16486 9.79994 8.90171C9.71827 8.89523 9.6379 8.87708 9.55883 8.84597C9.33457 8.75911 9.16216 8.588 9.07531 8.37023H8.9055C8.43235 8.37023 8.04735 7.98523 8.04735 7.51337C8.04735 7.04152 8.43235 6.65652 8.9055 6.65652H9.61327C9.59383 6.51134 9.57309 6.36874 9.55105 6.23134C9.52642 5.998 9.5679 5.82171 9.67031 5.70893C9.80772 5.55856 10.0203 5.56245 10.0229 5.56115C10.7501 5.56115 11.3412 4.97004 11.3412 4.24282C11.3412 4.09893 11.3179 3.95374 11.2699 3.81504ZM7.66364 4.78467C7.39272 4.78467 7.17235 4.5643 7.17235 4.29337C7.17235 4.02245 7.39272 3.80208 7.66364 3.80208C7.93457 3.80208 8.15494 4.02245 8.15494 4.29337C8.15494 4.5643 7.93457 4.78467 7.66364 4.78467Z" fill="#EF4444"/>
<path d="M7.66373 4.01709C7.51206 4.01709 7.38892 4.14024 7.38892 4.2919C7.38892 4.44357 7.51206 4.56802 7.66373 4.56802C7.8154 4.56802 7.93855 4.44487 7.93855 4.2919C7.93855 4.13894 7.8154 4.01709 7.66373 4.01709Z" fill="#EF4444"/>
</svg>
