<svg width="19" height="14" viewBox="0 0 19 14" fill="none" xmlns="http://www.w3.org/2000/svg">
<path d="M3.70768 0.657189C3.51242 0.461927 3.19583 0.461927 3.00057 0.657189L0.412184 3.24558C0.168107 3.48966 0.168107 3.88538 0.412184 4.12946C0.656262 4.37354 1.05199 4.37354 1.29607 4.12946L2.72913 2.6964V10.1875C2.72913 11.9134 4.12824 13.3125 5.85413 13.3125H9.85413C10.1993 13.3125 10.4791 13.0327 10.4791 12.6875C10.4791 12.3423 10.1993 12.0625 9.85413 12.0625H5.85413C4.81859 12.0625 3.97913 11.2231 3.97913 10.1875V2.6964L5.41218 4.12946C5.65626 4.37354 6.05199 4.37354 6.29607 4.12946C6.54015 3.88538 6.54015 3.48966 6.29607 3.24558L3.70768 0.657189Z" fill="white" fill-opacity="0.4"/>
<path d="M14.6256 13.3428C14.8208 13.5381 15.1374 13.5381 15.3327 13.3428L17.9211 10.7544C18.1651 10.5103 18.1651 10.1146 17.9211 9.87054C17.677 9.62646 17.2813 9.62646 17.0372 9.87054L15.6041 11.3036V3.81248C15.6041 2.08659 14.205 0.687481 12.4791 0.687481H8.47913C8.13395 0.687481 7.85413 0.967303 7.85413 1.31248C7.85413 1.65766 8.13395 1.93748 8.47913 1.93748H12.4791C13.5147 1.93748 14.3541 2.77695 14.3541 3.81248V11.3036L12.9211 9.87054C12.677 9.62646 12.2813 9.62646 12.0372 9.87054C11.7931 10.1146 11.7931 10.5103 12.0372 10.7544L14.6256 13.3428Z" fill="white" fill-opacity="0.4"/>
</svg>
