<svg width="21" height="20" viewBox="0 0 21 20" fill="none" xmlns="http://www.w3.org/2000/svg">
<g clip-path="url(#clip0_91_2579)">
<path d="M11.5834 17.5H9.08337" stroke="white" stroke-linecap="round" stroke-linejoin="round"/>
<path d="M10.3334 8.75C10.8511 8.75 11.2709 8.33027 11.2709 7.8125C11.2709 7.29473 10.8511 6.875 10.3334 6.875C9.81561 6.875 9.39587 7.29473 9.39587 7.8125C9.39587 8.33027 9.81561 8.75 10.3334 8.75Z" fill="white"/>
<path d="M7.74039 14.9999C3.2646 7.44682 8.4482 2.54135 9.94976 1.3812C10.0594 1.29593 10.1944 1.24963 10.3334 1.24963C10.4723 1.24963 10.6073 1.29593 10.7169 1.3812C12.2185 2.54135 17.4021 7.44682 12.9263 14.9999H7.74039Z" stroke="white" stroke-linecap="round" stroke-linejoin="round"/>
<path d="M14.6959 8.66248L17.0639 11.5031C17.1251 11.5766 17.1686 11.6631 17.191 11.756C17.2135 11.8489 17.2144 11.9457 17.1936 12.039L16.228 16.3851C16.2049 16.4888 16.1559 16.5848 16.0855 16.6643C16.015 16.7437 15.9255 16.8039 15.8254 16.8391C15.7252 16.8744 15.6178 16.8836 15.5131 16.8658C15.4084 16.848 15.31 16.8038 15.2272 16.7375L12.9264 15" stroke="white" stroke-linecap="round" stroke-linejoin="round"/>
<path d="M5.9709 8.66248L3.60293 11.5031C3.54176 11.5766 3.49827 11.6631 3.47578 11.756C3.4533 11.8489 3.45243 11.9457 3.47324 12.039L4.43886 16.3851C4.46188 16.4888 4.51092 16.5848 4.58136 16.6643C4.65179 16.7437 4.7413 16.8039 4.84144 16.8391C4.94158 16.8744 5.04904 16.8836 5.15371 16.8658C5.25837 16.848 5.35678 16.8038 5.43965 16.7375L7.74043 15" stroke="white" stroke-linecap="round" stroke-linejoin="round"/>
</g>
<defs>
<clipPath id="clip0_91_2579">
<rect width="20" height="20" fill="white" transform="translate(0.333374)"/>
</clipPath>
</defs>
</svg>
