<svg width="14" height="14" viewBox="0 0 14 14" fill="none" xmlns="http://www.w3.org/2000/svg">
<path fill-rule="evenodd" clip-rule="evenodd" d="M7.00171 1.89258C4.2334 1.89258 1.98621 4.14032 1.98621 6.90808C1.98621 9.67638 4.2334 11.9236 7.00171 11.9236C9.77001 11.9236 12.0172 9.67638 12.0172 6.90808C12.0172 4.14032 9.77001 1.89258 7.00171 1.89258ZM7.00171 2.98504C9.16697 2.98504 10.9247 4.74282 10.9247 6.90808C10.9247 9.07334 9.16697 10.8311 7.00171 10.8311C4.83644 10.8311 3.07867 9.07334 3.07867 6.90808C3.07867 4.74282 4.83644 2.98504 7.00171 2.98504Z" fill="#10B981"/>
<path d="M6.99981 8.10094C7.60316 8.10094 8.09228 7.61183 8.09228 7.00848C8.09228 6.40513 7.60316 5.91602 6.99981 5.91602C6.39646 5.91602 5.90735 6.40513 5.90735 7.00848C5.90735 7.61183 6.39646 8.10094 6.99981 8.10094Z" fill="#10B981"/>
<path fill-rule="evenodd" clip-rule="evenodd" d="M6.45361 1.54623V3.55746C6.45361 3.85898 6.69833 4.10369 6.99985 4.10369C7.30137 4.10369 7.54608 3.85898 7.54608 3.55746V1.54623C7.54608 1.24471 7.30137 1 6.99985 1C6.69833 1 6.45361 1.24471 6.45361 1.54623Z" fill="#10B981"/>
<path fill-rule="evenodd" clip-rule="evenodd" d="M6.45361 10.3736V12.3849C6.45361 12.6864 6.69833 12.9311 6.99985 12.9311C7.30137 12.9311 7.54608 12.6864 7.54608 12.3849V10.3736C7.54608 10.0721 7.30137 9.82739 6.99985 9.82739C6.69833 9.82739 6.45361 10.0721 6.45361 10.3736Z" fill="#10B981"/>
<path fill-rule="evenodd" clip-rule="evenodd" d="M10.3651 7.55487H12.3763C12.6778 7.55487 12.9225 7.31015 12.9225 7.00863C12.9225 6.70711 12.6778 6.4624 12.3763 6.4624H10.3651C10.0636 6.4624 9.81885 6.70711 9.81885 7.00863C9.81885 7.31015 10.0636 7.55487 10.3651 7.55487Z" fill="#10B981"/>
<path fill-rule="evenodd" clip-rule="evenodd" d="M3.63656 6.4624H1.62533C1.32381 6.4624 1.0791 6.70711 1.0791 7.00863C1.0791 7.31015 1.32381 7.55487 1.62533 7.55487H3.63656C3.93808 7.55487 4.18279 7.31015 4.18279 7.00863C4.18279 6.70711 3.93808 6.4624 3.63656 6.4624Z" fill="#10B981"/>
</svg>
