<svg width="14" height="14" viewBox="0 0 14 14" fill="none" xmlns="http://www.w3.org/2000/svg">
<path d="M7 1.09375C5.83186 1.09375 4.68994 1.44015 3.71867 2.08913C2.74739 2.73812 1.99037 3.66055 1.54334 4.73978C1.09631 5.819 0.979346 7.00655 1.20724 8.15225C1.43513 9.29795 1.99765 10.3503 2.82365 11.1763C3.64966 12.0024 4.70205 12.5649 5.84775 12.7928C6.99345 13.0207 8.181 12.9037 9.26023 12.4567C10.3395 12.0096 11.2619 11.2526 11.9109 10.2813C12.5599 9.31006 12.9063 8.16815 12.9063 7C12.9045 5.4341 12.2817 3.93283 11.1744 2.82557C10.0672 1.71831 8.5659 1.09549 7 1.09375ZM7 11.3203C6.51645 10.7544 6.13873 10.106 5.88492 9.40625H8.11727C7.97283 9.80196 7.78965 10.1824 7.57039 10.5421C7.40168 10.8165 7.21092 11.0768 7 11.3203ZM5.55133 8.09375C5.44305 7.3686 5.44305 6.6314 5.55133 5.90625H8.44977C8.55805 6.6314 8.55805 7.3686 8.44977 8.09375H5.55133ZM2.40625 7C2.40624 6.63139 2.45086 6.26413 2.53914 5.90625H4.22461C4.13347 6.63257 4.13347 7.36743 4.22461 8.09375H2.53914C2.45086 7.73587 2.40624 7.36861 2.40625 7ZM7 2.67969C7.48356 3.24562 7.86127 3.89398 8.11508 4.59375H5.88383C6.02827 4.19804 6.21145 3.81757 6.43071 3.45789C6.59907 3.18349 6.78946 2.92323 7 2.67969ZM9.7743 5.90625H11.4598C11.637 6.62465 11.637 7.37535 11.4598 8.09375H9.77539C9.86654 7.36743 9.86654 6.63257 9.77539 5.90625H9.7743ZM10.9102 4.59375H9.49977C9.3027 3.93224 9.0176 3.30022 8.65211 2.71469C9.58953 3.07859 10.3827 3.7383 10.9113 4.59375H10.9102ZM5.34789 2.71469C4.98241 3.30022 4.6973 3.93224 4.50024 4.59375H3.08875C3.61732 3.7383 4.41048 3.07859 5.34789 2.71469ZM3.08875 9.40625H4.50024C4.6973 10.0678 4.98241 10.6998 5.34789 11.2853C4.41048 10.9214 3.61732 10.2617 3.08875 9.40625ZM8.65211 11.2853C9.0176 10.6998 9.3027 10.0678 9.49977 9.40625H10.9113C10.3827 10.2617 9.58953 10.9214 8.65211 11.2853Z" fill="white"/>
</svg>
